<svg xmlns="http://www.w3.org/2000/svg" version="1.1" viewBox="660 1552 2400 311"><path d="M 660 1561.352 L 660 1566.705 668.733 1567.376 C 681.184 1568.333, 684.791 1570.333, 690.929 1579.684 C 694.326 1584.858, 714.542 1629.229, 756.042 1722.594 L 816.228 1858 820.864 1857.998 L 825.500 1857.996 886 1720.752 C 919.275 1645.268, 948.203 1580.952, 950.284 1577.827 C 955.682 1569.722, 959.926 1567.872, 974.597 1567.224 L 986 1566.721 986 1561.361 L 986 1556 944.500 1556 L 903 1556 903 1561.500 L 903 1567 909.250 1567.006 C 918.021 1567.014, 926.942 1568.637, 929.138 1570.625 C 931.766 1573.003, 931.467 1578.823, 928.207 1588.722 C 924.674 1599.454, 827.689 1819.098, 826.884 1818.193 C 825.919 1817.108, 728.200 1597.648, 723.941 1587 C 719.168 1575.068, 718.318 1570.811, 720.369 1569.109 C 721.228 1568.396, 726.049 1567.598, 731.445 1567.276 L 741 1566.706 741 1561.353 L 741 1556 700.500 1556 L 660 1556 660 1561.352 M 1067 1561.351 L 1067 1566.703 1078.518 1567.270 C 1092.689 1567.968, 1095.798 1569.387, 1097.731 1576.037 C 1099.619 1582.534, 1099.123 1831.409, 1097.215 1834.750 C 1094.590 1839.345, 1091.482 1840.374, 1078.870 1840.823 L 1067 1841.247 1067 1847.133 L 1067 1853.020 1112.250 1852.760 L 1157.500 1852.500 1157.797 1846.857 L 1158.093 1841.213 1146.297 1840.790 C 1139.758 1840.555, 1133.362 1839.807, 1131.946 1839.112 C 1126.169 1836.274, 1126.522 1844.554, 1126.243 1705.500 C 1126.002 1585.108, 1126.091 1577.292, 1127.743 1574.001 C 1130.242 1569.024, 1133.677 1567.794, 1146.678 1567.221 L 1158 1566.721 1158 1561.361 L 1158 1556 1112.500 1556 L 1067 1556 1067 1561.351 M 1286 1561.307 L 1286 1566.703 1294.640 1567.313 C 1304.425 1568.003, 1311.085 1570.697, 1314.448 1575.323 C 1316.488 1578.130, 1316.502 1578.886, 1316.762 1702.653 C 1317.018 1824.706, 1316.984 1827.247, 1315.051 1831.619 C 1312.371 1837.676, 1306.794 1840.200, 1294.750 1840.805 L 1286 1841.245 1286 1847.198 L 1286 1853.152 1362.750 1852.716 C 1436.018 1852.300, 1440.017 1852.182, 1450.890 1850.134 C 1500.453 1840.798, 1537.469 1810.988, 1556.083 1765.420 C 1579.650 1707.728, 1567.045 1637.869, 1525.588 1596.412 C 1506.862 1577.686, 1482.785 1564.996, 1454.102 1558.737 C 1444.895 1556.728, 1441.240 1556.626, 1365.250 1556.276 L 1286 1555.910 1286 1561.307 M 1344.225 1697.750 C 1344.498 1825.637, 1344.514 1826.526, 1346.565 1830.435 C 1347.846 1832.878, 1350.122 1835.154, 1352.565 1836.435 C 1356.362 1838.428, 1357.968 1838.499, 1398.500 1838.469 L 1440.500 1838.437 1450.074 1835.821 C 1471.137 1830.065, 1484.967 1822.176, 1499.589 1807.575 C 1510.195 1796.985, 1517.430 1786.622, 1524.117 1772.447 C 1544.851 1728.491, 1543.545 1671.336, 1520.838 1629 C 1506.380 1602.043, 1484.219 1583.143, 1457.004 1574.557 C 1441.465 1569.655, 1433.325 1569.012, 1386.725 1569.006 L 1343.949 1569 1344.225 1697.750" stroke="none" fill="#a4835c" fill-rule="evenodd"/><path d="M 1918.211 1553.750 C 1917.738 1554.713, 1902.309 1594.558, 1883.925 1642.295 C 1850.813 1728.277, 1850.477 1729.084, 1848 1728.475 C 1846.625 1728.137, 1840.652 1725.820, 1834.726 1723.327 C 1791.896 1705.301, 1775.530 1679.887, 1781.389 1640.500 C 1782.289 1634.450, 1783.281 1628.550, 1783.593 1627.389 C 1784.082 1625.569, 1783.537 1625.121, 1779.637 1624.139 C 1777.150 1623.513, 1774.671 1623, 1774.130 1623 C 1772.156 1623, 1764.598 1645.372, 1761.968 1659 C 1760.306 1667.614, 1760.577 1684.576, 1762.496 1692.010 C 1768.940 1716.984, 1789.556 1734.621, 1829.626 1749.443 L 1840.783 1753.570 1827.569 1787.194 C 1813.681 1822.532, 1809.922 1830.139, 1803.691 1835.509 C 1799.189 1839.390, 1794.737 1840.653, 1782.250 1841.592 L 1773 1842.287 1773 1847.643 L 1773 1853 1814.500 1853 L 1856 1853 1856 1847.619 L 1856 1842.238 1846.250 1841.517 C 1830.673 1840.364, 1827.197 1837.942, 1828.486 1829.136 C 1829.057 1825.235, 1852.601 1762.882, 1854.919 1759.131 C 1855.761 1757.768, 1888.970 1766.756, 1918 1776.203 C 1978.480 1795.886, 2010.370 1818.770, 2027.116 1854.507 L 2031.096 1863 2040.655 1863 C 2047.892 1863, 2050.097 1862.696, 2049.733 1861.750 C 2047.843 1856.836, 1934.044 1567.644, 1931.288 1560.750 L 1927.790 1552 1923.430 1552 C 1920.272 1552, 1918.833 1552.482, 1918.211 1553.750 M 2930.100 1554.195 C 2929.609 1555.463, 2913.883 1596.100, 2895.153 1644.500 C 2876.423 1692.900, 2859.726 1735.875, 2858.049 1740 C 2856.371 1744.125, 2848.883 1763.250, 2841.408 1782.500 C 2826.132 1821.841, 2823.409 1827.591, 2817.005 1834.028 C 2811.657 1839.403, 2808.031 1840.633, 2794.750 1841.579 L 2785 1842.274 2785 1847.637 L 2785 1853 2827 1853 L 2869 1853 2869 1847.629 L 2869 1842.258 2858.750 1841.534 C 2842.073 1840.357, 2838.750 1837.814, 2840.780 1827.784 C 2841.679 1823.342, 2866.062 1759.604, 2867.358 1758.308 C 2867.954 1757.712, 2911.150 1770.045, 2930 1776.192 C 2990.207 1795.828, 3021.061 1817.630, 3038.146 1852.608 L 3043.222 1863 3051.611 1863 L 3060 1863 3060 1860.079 C 3060 1858.473, 3033.031 1788.610, 3000.070 1704.829 L 2940.139 1552.500 2935.566 1552.195 C 2931.573 1551.929, 2930.879 1552.183, 2930.100 1554.195 M 2164 1561.351 L 2164 1566.703 2175.250 1567.268 C 2188.117 1567.915, 2191.173 1568.808, 2193.698 1572.661 C 2195.406 1575.269, 2195.514 1582.006, 2195.777 1702.456 C 2196.081 1842.045, 2196.325 1836.052, 2190.224 1839.035 C 2188.622 1839.818, 2182.640 1840.541, 2175.703 1840.790 L 2163.907 1841.213 2164.203 1846.857 L 2164.500 1852.500 2280.710 1852.754 L 2396.920 1853.008 2398.322 1848.254 C 2413.877 1795.485, 2419.216 1776.890, 2418.893 1776.601 C 2418.677 1776.408, 2416.022 1775.950, 2412.992 1775.584 L 2407.485 1774.917 2401.635 1792.708 C 2394.713 1813.758, 2388.557 1827.281, 2383.881 1831.707 C 2376.512 1838.683, 2379.164 1838.453, 2302.310 1838.782 C 2225.017 1839.112, 2227.274 1839.293, 2224.449 1832.532 C 2223.165 1829.460, 2223.005 1812.257, 2223.235 1702.202 C 2223.486 1581.985, 2223.593 1575.269, 2225.302 1572.661 C 2227.854 1568.767, 2230.968 1567.854, 2243.750 1567.251 L 2255 1566.721 2255 1561.361 L 2255 1556 2209.500 1556 L 2164 1556 2164 1561.351 M 2478.594 1560.250 C 2478.304 1562.588, 2477.371 1577.325, 2476.522 1593 C 2475.673 1608.675, 2474.725 1623.862, 2474.417 1626.750 L 2473.856 1632 2479.856 1632 L 2485.856 1632 2486.520 1626.250 C 2490.880 1588.481, 2492.558 1580.671, 2497.421 1575.515 C 2502.736 1569.880, 2504.435 1569.681, 2550.768 1569.254 L 2593.036 1568.864 2592.768 1700.682 C 2592.554 1805.837, 2592.240 1832.955, 2591.215 1834.750 C 2588.590 1839.345, 2585.482 1840.374, 2572.870 1840.823 L 2561 1841.247 2561 1847.123 L 2561 1853 2606 1853 L 2651 1853 2651 1847.108 L 2651 1841.216 2639.750 1840.816 C 2626.791 1840.356, 2622.855 1838.892, 2621.108 1833.881 C 2620.319 1831.617, 2620 1793.020, 2620 1699.784 L 2620 1568.866 2662.750 1569.183 C 2704.232 1569.491, 2705.640 1569.565, 2710.223 1571.682 C 2718.497 1575.504, 2721.035 1581.980, 2724.064 1607 C 2725.162 1616.075, 2726.300 1625.412, 2726.592 1627.750 L 2727.123 1632 2732.561 1632 L 2738 1632 2737.982 1628.250 C 2737.971 1626.188, 2737.076 1610.325, 2735.992 1593 C 2734.908 1575.675, 2734.016 1560.263, 2734.010 1558.750 L 2734 1556 2606.561 1556 L 2479.123 1556 2478.594 1560.250 M 1898.748 1645.258 C 1888.434 1671.791, 1876.445 1702.608, 1872.104 1713.740 L 1864.213 1733.981 1877.356 1738.053 C 1940.629 1757.654, 1961.587 1766.304, 1987.303 1783.432 L 1990.106 1785.299 1988.071 1779.900 C 1963.747 1715.347, 1918.425 1597.002, 1918.030 1597.008 C 1917.738 1597.012, 1909.062 1618.725, 1898.748 1645.258 M 2902.882 1665.516 L 2876.264 1733.997 2889.382 1738.072 C 2896.597 1740.314, 2909.025 1744.180, 2917 1746.664 C 2947.647 1756.208, 2974.291 1767.631, 2992 1778.819 C 2997.225 1782.119, 3001.593 1784.730, 3001.706 1784.621 C 3002.110 1784.230, 2930.604 1597, 2930.057 1597.018 C 2929.751 1597.027, 2917.522 1627.852, 2902.882 1665.516" stroke="none" fill="#0cacdc" fill-rule="evenodd"/></svg>